<svg id="instagram" xmlns="http://www.w3.org/2000/svg" width="30.372" height="30.372" viewBox="0 0 30.372 30.372">
  <path id="Path_1" data-name="Path 1" d="M15.186,2.736c4.055,0,4.536.015,6.136.089a6.7,6.7,0,0,1,4.566,1.659A6.656,6.656,0,0,1,27.548,9.05c.073,1.6.089,2.082.089,6.137s-.015,4.536-.089,6.137a6.732,6.732,0,0,1-1.659,4.566,6.654,6.654,0,0,1-4.566,1.659c-1.6.073-2.082.089-6.136.089s-4.536-.015-6.136-.089a6.78,6.78,0,0,1-4.566-1.659,6.693,6.693,0,0,1-1.659-4.566c-.073-1.6-.089-2.082-.089-6.137s.015-4.536.089-6.137A6.756,6.756,0,0,1,4.484,4.484,6.67,6.67,0,0,1,9.05,2.825c1.6-.073,2.082-.089,6.136-.089m0-2.736c-4.124,0-4.642.018-6.262.091A9.386,9.386,0,0,0,2.549,2.549,9.369,9.369,0,0,0,.091,8.924C.018,10.544,0,11.062,0,15.186s.018,4.642.091,6.262a9.4,9.4,0,0,0,2.458,6.376,9.378,9.378,0,0,0,6.376,2.458c1.62.073,2.137.091,6.262.091s4.642-.018,6.262-.091a9.392,9.392,0,0,0,6.376-2.458,9.366,9.366,0,0,0,2.458-6.376c.073-1.62.091-2.137.091-6.262s-.018-4.642-.091-6.262a9.389,9.389,0,0,0-2.458-6.376A9.386,9.386,0,0,0,21.448.091C19.828.018,19.311,0,15.186,0Z" transform="translate(0 0)" fill="#fff"/>
  <path id="Path_2" data-name="Path 2" d="M13.636,5.838a7.8,7.8,0,1,0,7.8,7.8A7.8,7.8,0,0,0,13.636,5.838Zm0,12.86A5.062,5.062,0,1,1,18.7,13.636,5.062,5.062,0,0,1,13.636,18.7Z" transform="translate(1.55 1.55)" fill="#fff"/>
  <ellipse id="Ellipse_1" data-name="Ellipse 1" cx="1.822" cy="1.822" rx="1.822" ry="1.822" transform="translate(21.471 5.257)" fill="#fff"/>
</svg>
