<svg id="linkedin" xmlns="http://www.w3.org/2000/svg" width="36.005" height="30.658" viewBox="0 0 36.005 30.658">
  <path id="Path_2525" d="M23.444,22.322h.341l-.653-.987h0a.558.558,0,0,0,.614-.564.314.314,0,0,0,0-.038c0-.423-.255-.626-.779-.626h-.846v2.214h.318v-.965h.392Zm-.638-1.215h-.369v-.749h.468c.242,0,.518.039.518.356,0,.363-.279.393-.618.393" transform="translate(11.064 7.385)" fill="#fff"/>
  <path id="Path_2520" d="M25.94,27.722H21.429V20.658c0-1.685-.03-3.852-2.346-3.852-2.349,0-2.709,1.835-2.709,3.731v7.186h-4.51V13.194h4.331v1.985h.06a4.748,4.748,0,0,1,4.273-2.346c4.573,0,5.414,3.008,5.414,6.919ZM6.773,11.208A2.618,2.618,0,1,1,9.391,8.59a2.617,2.617,0,0,1-2.618,2.618h0M9.028,27.722H4.513V13.194H9.028ZM28.189,1.784H2.246A2.222,2.222,0,0,0,0,3.978V30.028a2.222,2.222,0,0,0,2.246,2.2H28.189a2.227,2.227,0,0,0,2.255-2.2V3.977a2.227,2.227,0,0,0-2.255-2.195" transform="translate(0 -1.782)" fill="#fff"/>
  <path id="Path_2526" d="M23.288,19.451a2.076,2.076,0,1,0,.041,0h-.041m.048,3.913a1.861,1.861,0,0,1-1.9-1.788,1.82,1.82,0,1,1,3.639-.06v.03a1.781,1.781,0,0,1-1.742,1.818H23.29" transform="translate(10.62 7.056)" fill="#fff"/>
</svg>
